<?xml version="1.0" encoding="utf-8"?>
<!-- Generator: Adobe Illustrator 15.1.0, SVG Export Plug-In . SVG Version: 6.00 Build 0)  -->
<!DOCTYPE svg PUBLIC "-//W3C//DTD SVG 1.1//EN" "http://www.w3.org/Graphics/SVG/1.1/DTD/svg11.dtd">
<svg version="1.1" id="Ebene_1" xmlns="http://www.w3.org/2000/svg" xmlns:xlink="http://www.w3.org/1999/xlink" x="0px" y="0px"
	 width="77px" height="77px" viewBox="0 0 77 77" enable-background="new 0 0 77 77" xml:space="preserve">
<g>
	<defs>
		<rect id="SVGID_1_" x="24.745" y="24" width="27.51" height="21"/>
	</defs>
	<clipPath id="SVGID_2_">
		<use xlink:href="#SVGID_1_"  overflow="visible"/>
	</clipPath>
	<path clip-path="url(#SVGID_2_)" fill="#003B62" d="M30.395,44.049V27.158l-1.014,0.967c-0.573,0.546-1.34,1.103-2.281,1.655
		c-0.624,0.368-1.211,0.677-1.754,0.925v-1.167c1.317-0.654,2.494-1.44,3.503-2.342c0.98-0.876,1.72-1.748,2.204-2.596h0.667v19.449
		H30.395z"/>
	<path clip-path="url(#SVGID_2_)" fill="#003B62" d="M45.815,44.399c-1.94,0-3.476-0.689-4.692-2.11
		c-1.226-1.429-1.848-3.871-1.848-7.264c0-3.817,0.695-6.606,2.066-8.29c1.172-1.437,2.712-2.135,4.71-2.135
		c1.483,0,2.654,0.396,3.581,1.212c0.793,0.694,1.305,1.601,1.555,2.76l-1.354,0.107c-0.239-0.847-0.558-1.481-0.967-1.928
		c-0.803-0.848-1.799-1.274-2.967-1.274c-0.936,0-1.768,0.266-2.475,0.79c-0.881,0.642-1.582,1.583-2.078,2.794
		c-0.486,1.181-0.742,2.856-0.761,4.978l-0.019,2.042l1.12-1.707c0.547-0.834,1.221-1.459,2.002-1.859
		c0.79-0.402,1.628-0.606,2.488-0.606c1.527,0,2.792,0.547,3.867,1.673c1.083,1.134,1.61,2.57,1.61,4.39
		c0,1.187-0.26,2.306-0.772,3.328c-0.508,1.013-1.185,1.767-2.069,2.303C47.941,44.132,46.933,44.399,45.815,44.399 M45.675,32.938
		c-1.304,0-2.426,0.475-3.336,1.41c-0.902,0.928-1.36,2.153-1.36,3.637c0,0.954,0.205,1.879,0.609,2.75
		c0.417,0.898,1.015,1.596,1.777,2.074c0.756,0.473,1.566,0.713,2.408,0.713c1.238,0,2.313-0.501,3.196-1.489
		c0.865-0.972,1.303-2.286,1.303-3.906c0-1.57-0.437-2.838-1.297-3.769C48.104,33.417,46.993,32.938,45.675,32.938"/>
</g>
</svg>
