<?xml version="1.0" encoding="utf-8"?>
<!-- Generator: Adobe Illustrator 15.1.0, SVG Export Plug-In . SVG Version: 6.00 Build 0)  -->
<!DOCTYPE svg PUBLIC "-//W3C//DTD SVG 1.1//EN" "http://www.w3.org/Graphics/SVG/1.1/DTD/svg11.dtd">
<svg version="1.1" id="Ebene_1" xmlns="http://www.w3.org/2000/svg" xmlns:xlink="http://www.w3.org/1999/xlink" x="0px" y="0px"
	 width="77px" height="77px" viewBox="0 0 77 77" enable-background="new 0 0 77 77" xml:space="preserve">
<g>
	<defs>
		<rect id="SVGID_1_" x="24.612" y="23" width="27.775" height="21"/>
	</defs>
	<clipPath id="SVGID_2_">
		<use xlink:href="#SVGID_1_"  overflow="visible"/>
	</clipPath>
	<path clip-path="url(#SVGID_2_)" fill="#003B62" d="M30.347,43.399V26.233l-1.015,0.97c-0.577,0.552-1.359,1.119-2.321,1.686
		c-0.642,0.376-1.244,0.693-1.799,0.946v-1.208c1.34-0.665,2.538-1.465,3.566-2.382c0.998-0.894,1.751-1.782,2.242-2.645h0.696
		v19.799H30.347z"/>
	<path clip-path="url(#SVGID_2_)" fill="#003B62" d="M39.187,43.399c0.038-0.33,0.117-0.654,0.237-0.969
		c0.327-0.874,0.861-1.751,1.587-2.607c0.749-0.881,1.854-1.922,3.283-3.092c2.333-1.913,3.874-3.396,4.711-4.539
		c0.873-1.189,1.315-2.347,1.315-3.443c0-1.183-0.43-2.195-1.275-3.008c-0.839-0.807-1.937-1.217-3.262-1.217
		c-1.396,0-2.537,0.434-3.393,1.29c-0.722,0.722-1.146,1.676-1.267,2.843l-1.405-0.144c0.234-1.529,0.815-2.682,1.767-3.514
		c1.061-0.929,2.526-1.4,4.354-1.4c1.864,0,3.287,0.492,4.353,1.505c1.056,1.003,1.567,2.213,1.567,3.701
		c0,0.751-0.155,1.503-0.466,2.235c-0.317,0.747-0.855,1.551-1.602,2.388c-0.772,0.87-2.083,2.089-3.897,3.622
		c-1.565,1.315-2.553,2.191-3.015,2.678c-0.464,0.488-0.854,0.989-1.161,1.489l-0.56,0.913h10.729v1.269H39.187z"/>
</g>
</svg>
