<?xml version="1.0" encoding="utf-8"?>
<!-- Generator: Adobe Illustrator 15.1.0, SVG Export Plug-In . SVG Version: 6.00 Build 0)  -->
<!DOCTYPE svg PUBLIC "-//W3C//DTD SVG 1.1//EN" "http://www.w3.org/Graphics/SVG/1.1/DTD/svg11.dtd">
<svg version="1.1" id="Ebene_1" xmlns="http://www.w3.org/2000/svg" xmlns:xlink="http://www.w3.org/1999/xlink" x="0px" y="0px"
	 width="77px" height="77px" viewBox="0 0 77 77" enable-background="new 0 0 77 77" xml:space="preserve">
<g>
	<defs>
		<rect id="SVGID_1_" x="23.5" y="21" width="30" height="25"/>
	</defs>
	<clipPath id="SVGID_2_">
		<use xlink:href="#SVGID_1_"  overflow="visible"/>
	</clipPath>
	<path clip-path="url(#SVGID_2_)" fill="#003B62" d="M50.178,32.386c-0.278-0.15-0.627-0.051-0.779,0.226
		c-0.611,1.103-5.088,2.295-11.255,2.295c-6.166,0-10.643-1.192-11.254-2.295c-0.152-0.276-0.501-0.375-0.779-0.226
		c-0.278,0.152-0.38,0.498-0.226,0.773c1.097,1.982,7.124,2.886,12.259,2.886c5.137,0,11.163-0.904,12.261-2.886
		C50.558,32.884,50.455,32.538,50.178,32.386"/>
	<path clip-path="url(#SVGID_2_)" fill="#003B62" d="M38.358,46C26.7,46,23.544,32.515,23.514,32.379
		c-0.026-0.115-0.015-0.234,0.03-0.343c0.075-0.177,1.969-4.333,14.607-4.333c12.638,0,14.533,4.156,14.607,4.333
		c0.043,0.103,0.054,0.217,0.034,0.326C52.766,32.498,50.031,46,38.358,46 M24.687,32.341c0.439,1.655,3.706,12.521,13.671,12.521
		c4.477,0,8.07-2.115,10.679-6.289c1.697-2.713,2.41-5.468,2.584-6.223c-0.445-0.64-3.029-3.509-13.47-3.509
		C27.756,28.841,25.148,31.685,24.687,32.341"/>
	<path clip-path="url(#SVGID_2_)" fill="#003B62" d="M53.332,21.167c-0.224-0.223-0.587-0.223-0.812,0L41.437,31.75
		c-1.659-1.15-4.165-0.267-5.535,1.092c-0.165,0.164-0.329,0.365-0.488,0.588c-0.033,0.3,0.291,0.484,0.494,0.538
		c0.202,0.053,0.573,0,0.718-0.224c0.03-0.032,0.058-0.068,0.088-0.097c1.084-1.075,3.206-1.462,4.348-0.372
		c0.011,0.011,0.015,0.025,0.024,0.035c0.012,0.01,0.025,0.013,0.035,0.023c0.205,0.211,0.343,0.462,0.448,0.728
		c0.173,0.144,0.415,0.252,0.603,0.214c0.189-0.036,0.454-0.236,0.525-0.426c0.002-0.002,0.006,0.001,0.008,0.001
		c-0.103-0.321-0.236-0.63-0.434-0.911l11.061-10.968C53.557,21.749,53.555,21.389,53.332,21.167"/>
</g>
</svg>
