<?xml version="1.0" encoding="utf-8"?>
<!-- Generator: Adobe Illustrator 15.1.0, SVG Export Plug-In . SVG Version: 6.00 Build 0)  -->
<!DOCTYPE svg PUBLIC "-//W3C//DTD SVG 1.1//EN" "http://www.w3.org/Graphics/SVG/1.1/DTD/svg11.dtd">
<svg version="1.1" id="Ebene_1" xmlns="http://www.w3.org/2000/svg" xmlns:xlink="http://www.w3.org/1999/xlink" x="0px" y="0px"
	 width="77px" height="77px" viewBox="0 0 77 77" enable-background="new 0 0 77 77" xml:space="preserve">
<g>
	<defs>
		<rect id="SVGID_1_" x="27.5" y="20.5" width="22" height="26"/>
	</defs>
	<clipPath id="SVGID_2_">
		<use xlink:href="#SVGID_1_"  overflow="visible"/>
	</clipPath>
	<path clip-path="url(#SVGID_2_)" fill="#003B62" d="M49.309,26l-1.625-1.636c-0.123-0.128-0.293-0.199-0.477-0.199
		c-0.029,0-0.092,0.005-0.119,0.009c-0.166,0.028-0.324,0.113-0.443,0.236l-1.396,1.407c-0.148,0.15-0.191,0.384-0.11,0.579
		c0.008,0.021,1.836,2.209,2.354,2.209c0.138,0,0.271-0.056,0.369-0.154l1.395-1.406c0.125-0.126,0.209-0.287,0.233-0.445
		C49.527,26.374,49.461,26.156,49.309,26 M47.467,27.37c-0.329-0.315-0.832-0.822-1.145-1.154l0.865-0.872l1.145,1.153L47.467,27.37
		z"/>
	<path clip-path="url(#SVGID_2_)" fill="#003B62" d="M42.084,31.002l-4.906,4.947c-0.203,0.205-0.203,0.536,0,0.741
		c0.101,0.102,0.235,0.153,0.367,0.153c0.133,0,0.266-0.052,0.367-0.153l4.906-4.948c0.203-0.204,0.203-0.535,0-0.74
		S42.287,30.797,42.084,31.002"/>
	<path clip-path="url(#SVGID_2_)" fill="#003B62" d="M40.011,25.461v-1.235h0.315c0.178,0,0.349-0.055,0.467-0.144
		c0.188-0.129,0.301-0.338,0.301-0.558v-2.322c0-0.218-0.105-0.42-0.285-0.549c-0.134-0.099-0.305-0.153-0.482-0.153h-4.597
		c-0.176,0-0.346,0.054-0.479,0.151c-0.183,0.134-0.287,0.334-0.287,0.551v2.322c0,0.218,0.105,0.419,0.294,0.555
		c0.134,0.095,0.301,0.147,0.472,0.147h0.317v1.235c-4.86,0.938-8.546,5.252-8.546,10.422c0,5.854,4.723,10.617,10.528,10.617
		c5.804,0,10.528-4.763,10.528-10.617C48.556,30.713,44.87,26.4,40.011,25.461 M36.565,23.179h-0.564v-1.632h4.055v1.632h-0.563
		c-0.287,0-0.521,0.234-0.521,0.524v1.612c-0.311-0.029-0.625-0.049-0.944-0.049s-0.632,0.02-0.944,0.049v-1.612
		C37.084,23.413,36.852,23.179,36.565,23.179 M38.028,45.453c-5.232,0-9.49-4.293-9.49-9.57c0-5.277,4.258-9.57,9.49-9.57
		s9.49,4.293,9.49,9.57C47.518,41.16,43.26,45.453,38.028,45.453"/>
</g>
</svg>
