<?xml version="1.0" encoding="utf-8"?>
<!-- Generator: Adobe Illustrator 16.0.4, SVG Export Plug-In . SVG Version: 6.00 Build 0)  -->
<!DOCTYPE svg PUBLIC "-//W3C//DTD SVG 1.1//EN" "http://www.w3.org/Graphics/SVG/1.1/DTD/svg11.dtd">
<svg version="1.1" id="Ebene_1" xmlns="http://www.w3.org/2000/svg" xmlns:xlink="http://www.w3.org/1999/xlink" x="0px" y="0px"
	 width="214px" height="235px" viewBox="0 0 214 235" enable-background="new 0 0 214 235" xml:space="preserve">
<path fill="#003B62" d="M214,92.293l-43.088,10.537v53.993L214,146.289V92.293z"/>
<path fill="#4B669A" enable-background="new    " d="M201.074,174.167l-30.162-17.541v-53.995l30.162,17.541V174.167z"/>
<path fill="none" d="M201.252,171.727l-30.148-17.541v-53.993l30.148,17.541V171.727z"/>
<path fill="#003B62" d="M43.566,170.467L0,181.002V235l43.566-10.54V170.467z"/>
<path fill="#4B669A" enable-background="new    " d="M43.566,224.355l-29.523-17.521V152.84l29.523,17.52V224.355z"/>
<path fill="none" d="M43.34,224.355l-29.455-17.543v-53.994l29.455,17.541V224.355z"/>
<path fill="#F19C3A" d="M182.791,85.006c0,46.945-37.617,85.006-84.016,85.006c-46.396,0-84.016-38.061-84.016-85.006
	C14.76,38.057,52.379,0,98.775,0C145.174,0,182.791,38.057,182.791,85.006L182.791,85.006z"/>
<path fill="#FFFFFF" d="M145.107,74.126c-0.137-3.374-0.945-7.29-3.514-10.263c0.27-1.485,0.541-4.861-1.621-8.236
	c-2.43-4.051-7.43-6.888-14.59-8.104c-2.973-0.538-7.293-2.7-10.805-4.725c1.488-2.161,2.164-4.863,2.164-7.968
	c0-4.592-1.893-8.371-5.408-11.207c-2.43-1.891-5.4-1.352-8.1-0.812c-1.486,0.273-2.975,0.54-4.463,0.54
	c-1.482,0-2.969-0.267-4.455-0.54c-2.836-0.539-5.672-1.078-8.102,0.812c-3.514,2.836-5.406,6.615-5.406,11.207
	c0,1.349,0.137,2.564,0.406,3.646c-4.59,0.675-8.107,3.24-10.268,7.29c-7.967,0.407-12.963,5.401-13.775,13.642
	c0,0.404,0,0.811-0.133,1.079c-0.543,0.408-7.566,5.673-5.404,14.044c-5,2.297-7.971,5.268-7.971,8.643
	c0,0.811,0.139,1.621,0.541,2.297l18.234,49.021c2.432,6.482,20.531,9.318,36.332,9.318c15.807,0,33.908-2.836,36.338-9.185
	l18.236-49.021c0.27-0.811,0.541-1.484,0.541-2.296C153.887,79.664,150.508,76.559,145.107,74.126z M141.73,81.253l-1.893,2.026
	h-6.891c0.137-4.051-1.619-14.854-19.18-21.742c-6.215-2.43-10.805-4.563-14.051-6.18c-6.883-3.514-8.236-5.673-8.643-7.969
	c-0.133-0.404-0.133-0.943-0.133-1.352c0-1.215,1.623-2.699,3.105-3.779c2.162,2.025,8.643,7.561,18.236,10.803
	c6.617,2.159,16.344,5.805,24.852,10.803C144.43,68.049,142.135,79.229,141.73,81.253z M124.979,50.227
	c6.35,1.213,10.67,3.509,12.699,6.885c1.08,1.754,1.35,3.376,1.35,4.727c-0.135-0.136-0.27-0.136-0.404-0.268
	c-8.783-5.268-18.773-8.779-25.395-11.076c-3.92-1.348-7.295-3.105-10.133-4.861c0.271-1.215,2.027-3.107,3.783-4.32
	C109.58,43.202,119.035,49.146,124.979,50.227z M87.834,25.782c1.352-1.082,3.24-0.81,5.945-0.27
	c1.484,0.27,3.242,0.675,4.859,0.675c1.621,0,3.375-0.27,4.863-0.675c2.973-0.54,4.727-0.944,6.213,0.27
	c2.84,2.295,4.324,5.401,4.324,9.048c0,2.702-0.539,4.862-1.756,6.617c-2.703-1.619-4.594-2.836-4.594-2.971
	c-0.406-0.27-1.08-0.27-1.484,0c-0.812,0.541-4.055,2.836-5.268,5.537c-3.516-2.431-5.541-4.457-5.541-4.594
	c-0.404-0.402-1.08-0.54-1.617-0.269c-0.408,0.269-2.838,1.756-4.189,3.782c-0.404-0.541-0.945-1.082-1.35-1.486
	c-0.945-0.945-1.891-1.891-3.242-3.779c-0.271-0.273-0.678-0.545-1.078-0.545l0,0c-0.139-0.809-0.139-1.62-0.139-2.428
	C83.514,31.049,84.998,27.943,87.834,25.782z M83.648,40.773c0.941,1.212,1.754,1.889,2.43,2.697
	c0.945,0.947,1.621,1.758,2.297,2.975c0.402,5.533,1.889,8.641,24.447,17.555c17.289,6.885,17.695,17.285,17.424,19.85l-7.156,4.053
	l-10.807-3.918c-0.139-5.674-7.025-10.264-13.102-14.449c-2.029-1.351-3.918-2.565-5.135-3.645
	c-5.402-4.594-11.482-11.885-12.023-18.502C81.756,44.957,82.432,42.798,83.648,40.773z M73.107,47.389
	c0.41-0.812,0.945-1.622,1.486-2.432c1.219-1.486,2.84-2.699,5.406-3.374c0.135,0,0.135,0,0.27,0
	c-0.811,1.888-1.078,3.915-0.945,6.075c0.406,5.133,3.24,9.855,6.35,13.639c2.566,3.242,5.268,5.673,6.617,6.752
	c1.488,1.214,3.377,2.566,5.404,3.917c1.486,0.945,3.107,2.026,4.592,3.241c3.781,2.838,7.16,5.807,7.293,8.914l-2.16,1.215
	l-7.971,4.457l-8.508-3.914l-1.893-0.812c-1.08-3.646-2.43-5.674-4.186-7.566c-0.811-0.806-1.623-1.617-2.432-2.429
	c-1.891-1.752-3.916-3.646-6.484-7.155c-1.354-1.892-2.43-4.053-3.242-6.346C71.223,56.437,71.354,51.304,73.107,47.389z
	 M59.875,59.678c0.404-3.781,2.158-10.129,9.994-11.076c-1.891,6.484-0.408,14.994,3.781,20.661
	c2.703,3.648,4.998,5.675,6.756,7.432c2.701,2.564,4.32,4.05,5.672,8.235l-7.834,3.376C66.627,85.336,58.795,70.615,59.875,59.678z
	 M57.172,64c0.674,6.615,3.783,13.91,8.51,19.31c-2.16,0-4.727,0-6.08,0c-0.807-0.81-2.834-3.241-4.727-7.427
	C52.445,70.076,55.281,66.024,57.172,64z M65.008,133.682L48.934,90.334c3.242,2.025,7.834,3.779,13.238,5.129l11.346,42.809
	C68.654,136.922,65.682,135.3,65.008,133.682z M76.486,138.947L65.008,96.139c3.646,0.81,7.562,1.486,11.617,1.891l6.748,42.133
	C80.809,139.76,78.516,139.355,76.486,138.947z M86.078,140.435l-6.754-42.136c3.646,0.406,7.432,0.676,11.076,0.812l2.164,41.725
	C90.535,140.836,88.24,140.703,86.078,140.435z M102.014,141.107c-1.076,0-2.156,0-3.242,0c-1.076,0-2.156,0-3.238,0l-2.297-41.863
	c1.889,0,3.648,0.137,5.535,0.137c1.893,0,3.65,0,5.541-0.137L102.014,141.107z M104.717,140.975l2.162-41.73
	c3.783-0.133,7.566-0.406,11.078-0.807l-6.758,42.13C109.309,140.703,107.15,140.836,104.717,140.975z M114.174,140.162
	l6.754-42.133c4.051-0.539,7.969-1.081,11.615-1.891l-11.344,42.809C119.035,139.355,116.742,139.76,114.174,140.162z
	 M132.543,133.682c-0.539,1.618-3.646,3.24-8.373,4.59l11.346-42.809c5.402-1.35,9.994-3.104,13.236-5.129L132.543,133.682z
	 M151.049,84.391L151.049,84.391l-0.135,0.27c-2.701,5.943-23.367,12.02-52.006,12.02c-28.768,0-49.303-6.076-52.002-12.02
	l-0.404-0.27l0,0c-0.137,0-0.137-0.81-0.137-1.081c0-2.024,2.16-4.319,6.215-6.211c2.701,5.806,5.537,8.372,5.537,8.507
	c0.271,0.273,0.541,0.407,0.945,0.407c0.539,0,1.893,0,3.242,0c2.295,0,4.998,0,6.078,0c2.84,2.429,6.078,4.321,9.727,4.996
	c0.135,0,0.135,0,0.268,0c0.139,0,0.406,0,0.541-0.139l8.916-3.779l11.074,5.132c0.135,0.137,0.406,0.137,0.541,0.137
	c0.268,0,0.408,0,0.676-0.137l10.67-5.943l12.021,4.324c0.404,0.135,0.814-0.071,1.08-0.341l8.107-4.591h8.51
	c0.404,0,0.674-0.135,0.945-0.404l2.564-2.632c0.139-0.136,0.273-0.405,0.273-0.542c0-0.27,0.537-2.159,0.811-4.859
	c3.916,1.889,6.076,4.186,6.076,6.209C151.184,83.581,151.049,84.391,151.049,84.391z"/>
<path fill="#003B62" d="M202.031,173.922L13.885,206.812v-53.993l188.146-32.89V173.922z"/>
<g>
	<path fill="#FFFFFF" d="M196.043,172.93c-0.357,0-0.675-0.257-0.738-0.622c-0.07-0.408,0.203-0.796,0.611-0.867l2.336-0.405
		l0.009-2.371c0.002-0.413,0.337-0.747,0.75-0.747h0.003c0.414,0.002,0.749,0.339,0.747,0.753l-0.013,3.629l-3.576,0.62
		C196.129,172.926,196.086,172.93,196.043,172.93z"/>
	<path fill="#FFFFFF" d="M25.786,202.434c-0.358,0-0.675-0.257-0.738-0.622c-0.07-0.408,0.203-0.796,0.611-0.867l6.08-1.054
		c0.399-0.065,0.796,0.202,0.867,0.611c0.07,0.408-0.203,0.796-0.611,0.867l-6.08,1.054
		C25.872,202.43,25.829,202.434,25.786,202.434z M37.947,200.326c-0.358,0-0.675-0.257-0.738-0.622
		c-0.07-0.408,0.203-0.796,0.611-0.867l6.08-1.054c0.402-0.065,0.796,0.202,0.867,0.611c0.07,0.408-0.203,0.796-0.611,0.867
		l-6.08,1.054C38.033,200.322,37.99,200.326,37.947,200.326z M50.108,198.219c-0.358,0-0.675-0.257-0.738-0.622
		c-0.07-0.408,0.203-0.796,0.611-0.867l6.081-1.054c0.399-0.065,0.796,0.202,0.867,0.611c0.07,0.408-0.203,0.796-0.611,0.867
		l-6.081,1.054C50.194,198.215,50.151,198.219,50.108,198.219z M62.27,196.111c-0.358,0-0.675-0.257-0.738-0.622
		c-0.07-0.408,0.203-0.796,0.611-0.867l6.081-1.054c0.402-0.064,0.796,0.202,0.867,0.611c0.07,0.408-0.203,0.796-0.611,0.867
		l-6.081,1.054C62.355,196.107,62.312,196.111,62.27,196.111z M74.431,194.004c-0.358,0-0.675-0.257-0.738-0.622
		c-0.07-0.408,0.203-0.796,0.611-0.867l6.081-1.054c0.401-0.064,0.796,0.202,0.867,0.611c0.07,0.408-0.203,0.796-0.611,0.867
		l-6.081,1.054C74.517,194,74.474,194.004,74.431,194.004z M86.592,191.896c-0.358,0-0.675-0.257-0.738-0.622
		c-0.07-0.408,0.203-0.796,0.611-0.867l6.081-1.054c0.399-0.064,0.796,0.202,0.867,0.611c0.07,0.408-0.203,0.796-0.611,0.867
		l-6.081,1.054C86.678,191.893,86.635,191.896,86.592,191.896z M98.754,189.789c-0.358,0-0.675-0.257-0.738-0.622
		c-0.07-0.408,0.203-0.796,0.611-0.867l6.08-1.054c0.402-0.064,0.796,0.202,0.867,0.611c0.07,0.408-0.203,0.796-0.611,0.867
		l-6.08,1.054C98.84,189.785,98.797,189.789,98.754,189.789z M110.915,187.682c-0.358,0-0.675-0.257-0.738-0.622
		c-0.07-0.408,0.203-0.796,0.611-0.867l6.08-1.054c0.401-0.063,0.796,0.202,0.867,0.611c0.07,0.408-0.203,0.796-0.611,0.867
		l-6.08,1.054C111.001,187.678,110.958,187.682,110.915,187.682z M123.076,185.574c-0.358,0-0.675-0.257-0.738-0.622
		c-0.07-0.408,0.203-0.796,0.611-0.867l6.08-1.054c0.399-0.063,0.796,0.202,0.867,0.611c0.07,0.408-0.203,0.796-0.611,0.867
		l-6.08,1.054C123.162,185.57,123.119,185.574,123.076,185.574z M135.237,183.467c-0.358,0-0.675-0.257-0.738-0.622
		c-0.07-0.408,0.203-0.796,0.611-0.867l6.08-1.054c0.402-0.063,0.796,0.202,0.867,0.611c0.07,0.408-0.203,0.796-0.611,0.867
		l-6.08,1.054C135.323,183.463,135.28,183.467,135.237,183.467z M147.398,181.359c-0.358,0-0.675-0.257-0.738-0.622
		c-0.07-0.408,0.203-0.796,0.611-0.867l6.081-1.054c0.4-0.063,0.796,0.202,0.867,0.611c0.07,0.408-0.203,0.796-0.611,0.867
		l-6.081,1.054C147.484,181.355,147.441,181.359,147.398,181.359z M159.56,179.252c-0.358,0-0.675-0.257-0.738-0.622
		c-0.07-0.408,0.203-0.796,0.611-0.867l6.081-1.054c0.403-0.062,0.796,0.202,0.867,0.611c0.07,0.408-0.203,0.796-0.611,0.867
		l-6.081,1.054C159.646,179.248,159.603,179.252,159.56,179.252z M171.721,177.145c-0.358,0-0.675-0.257-0.738-0.622
		c-0.07-0.408,0.203-0.796,0.611-0.867l6.081-1.054c0.401-0.062,0.796,0.202,0.867,0.611c0.07,0.408-0.203,0.796-0.611,0.867
		l-6.081,1.054C171.807,177.141,171.764,177.145,171.721,177.145z M183.882,175.037c-0.358,0-0.675-0.257-0.738-0.622
		c-0.07-0.408,0.203-0.796,0.611-0.867l6.081-1.054c0.4-0.062,0.796,0.202,0.867,0.611c0.07,0.408-0.203,0.796-0.611,0.867
		l-6.081,1.054C183.968,175.033,183.925,175.037,183.882,175.037z"/>
	<path fill="#FFFFFF" d="M16,204.142v-3.892c0-0.414,0.336-0.75,0.75-0.75s0.75,0.336,0.75,0.75v2.108l2.078-0.36
		c0.4-0.065,0.796,0.202,0.867,0.611c0.07,0.408-0.203,0.796-0.611,0.867L16,204.142z"/>
	<path fill="#FFFFFF" d="M16.75,195c-0.414,0-0.75-0.336-0.75-0.75v-6c0-0.414,0.336-0.75,0.75-0.75s0.75,0.336,0.75,0.75v6
		C17.5,194.664,17.164,195,16.75,195z M16.75,183c-0.414,0-0.75-0.336-0.75-0.75v-6c0-0.414,0.336-0.75,0.75-0.75
		s0.75,0.336,0.75,0.75v6C17.5,182.664,17.164,183,16.75,183z M16.75,171c-0.414,0-0.75-0.336-0.75-0.75v-6
		c0-0.414,0.336-0.75,0.75-0.75s0.75,0.336,0.75,0.75v6C17.5,170.664,17.164,171,16.75,171z"/>
	<path fill="#FFFFFF" d="M16.75,159c-0.414,0-0.75-0.336-0.75-0.75v-3.631l3.576-0.624c0.409-0.062,0.796,0.202,0.868,0.61
		c0.07,0.408-0.202,0.797-0.61,0.868l-2.334,0.407v2.369C17.5,158.664,17.164,159,16.75,159z"/>
	<path fill="#FFFFFF" d="M25.791,154.422c-0.357,0-0.674-0.257-0.738-0.621c-0.07-0.408,0.202-0.797,0.61-0.868l6.087-1.062
		c0.411-0.062,0.796,0.202,0.868,0.61c0.07,0.408-0.202,0.797-0.61,0.868l-6.087,1.062
		C25.877,154.418,25.834,154.422,25.791,154.422z M37.964,152.298c-0.357,0-0.674-0.257-0.738-0.621
		c-0.07-0.408,0.202-0.797,0.61-0.868l6.087-1.062c0.409-0.062,0.796,0.202,0.868,0.61c0.07,0.408-0.202,0.797-0.61,0.868
		l-6.087,1.062C38.05,152.294,38.007,152.298,37.964,152.298z M50.137,150.174c-0.357,0-0.674-0.257-0.738-0.621
		c-0.071-0.408,0.202-0.797,0.61-0.868l6.087-1.062c0.412-0.062,0.796,0.202,0.868,0.61c0.07,0.408-0.202,0.797-0.61,0.868
		l-6.087,1.062C50.223,150.17,50.18,150.174,50.137,150.174z M62.31,148.049c-0.357,0-0.674-0.257-0.738-0.621
		c-0.07-0.408,0.202-0.797,0.61-0.868l6.087-1.062c0.41-0.063,0.796,0.202,0.868,0.61c0.07,0.408-0.202,0.797-0.61,0.868
		l-6.087,1.062C62.396,148.045,62.353,148.049,62.31,148.049z M74.482,145.925c-0.357,0-0.674-0.257-0.738-0.621
		c-0.07-0.408,0.202-0.797,0.61-0.868l6.087-1.062c0.413-0.064,0.797,0.202,0.868,0.61c0.07,0.408-0.202,0.797-0.61,0.868
		l-6.087,1.062C74.568,145.921,74.525,145.925,74.482,145.925z M86.655,143.801c-0.357,0-0.674-0.257-0.738-0.621
		c-0.07-0.408,0.202-0.797,0.61-0.868l6.087-1.062c0.411-0.064,0.796,0.202,0.868,0.61c0.071,0.408-0.202,0.797-0.61,0.868
		l-6.087,1.062C86.741,143.797,86.698,143.801,86.655,143.801z M98.828,141.677c-0.357,0-0.674-0.257-0.738-0.621
		c-0.07-0.408,0.202-0.797,0.61-0.868l6.087-1.062c0.409-0.064,0.796,0.203,0.868,0.61c0.07,0.408-0.202,0.797-0.61,0.868
		l-6.087,1.062C98.914,141.673,98.871,141.677,98.828,141.677z M111.001,139.553c-0.357,0-0.674-0.257-0.738-0.621
		c-0.07-0.408,0.202-0.797,0.61-0.868l6.087-1.062c0.411-0.061,0.796,0.202,0.868,0.61c0.07,0.408-0.202,0.797-0.61,0.868
		l-6.087,1.062C111.087,139.549,111.044,139.553,111.001,139.553z M123.175,137.428c-0.357,0-0.674-0.257-0.738-0.621
		c-0.07-0.408,0.202-0.797,0.61-0.868l6.086-1.062c0.409-0.062,0.796,0.202,0.868,0.61c0.07,0.408-0.202,0.797-0.61,0.868
		l-6.086,1.062C123.261,137.424,123.218,137.428,123.175,137.428z M135.348,135.304c-0.357,0-0.674-0.257-0.738-0.621
		c-0.07-0.408,0.202-0.797,0.61-0.868l6.086-1.062c0.412-0.062,0.796,0.202,0.868,0.61c0.07,0.408-0.202,0.797-0.61,0.868
		l-6.086,1.062C135.434,135.3,135.391,135.304,135.348,135.304z M147.521,133.18c-0.357,0-0.674-0.257-0.738-0.621
		c-0.071-0.408,0.202-0.797,0.61-0.868l6.086-1.062c0.41-0.062,0.796,0.202,0.868,0.61c0.071,0.408-0.202,0.797-0.61,0.868
		l-6.086,1.062C147.606,133.176,147.563,133.18,147.521,133.18z M159.693,131.056c-0.357,0-0.674-0.257-0.738-0.621
		c-0.071-0.408,0.202-0.797,0.61-0.868l6.086-1.062c0.408-0.063,0.796,0.202,0.868,0.61c0.071,0.408-0.202,0.797-0.61,0.868
		l-6.086,1.062C159.779,131.052,159.736,131.056,159.693,131.056z M171.866,128.931c-0.357,0-0.674-0.257-0.738-0.621
		c-0.07-0.408,0.202-0.797,0.61-0.868l6.086-1.062c0.411-0.063,0.796,0.202,0.868,0.61c0.07,0.408-0.202,0.797-0.61,0.868
		l-6.086,1.062C171.952,128.927,171.909,128.931,171.866,128.931z M184.039,126.807c-0.357,0-0.674-0.257-0.738-0.621
		c-0.07-0.408,0.202-0.797,0.61-0.868l6.086-1.062c0.409-0.064,0.796,0.203,0.868,0.61c0.07,0.408-0.202,0.797-0.61,0.868
		l-6.086,1.062C184.125,126.803,184.082,126.807,184.039,126.807z"/>
	<path fill="#FFFFFF" d="M199.157,127.167c-0.001,0-0.002,0-0.003,0c-0.414-0.002-0.749-0.339-0.747-0.753l0.008-2.104l-2.073,0.362
		c-0.407,0.065-0.796-0.202-0.868-0.61c-0.07-0.408,0.202-0.796,0.61-0.868l3.837-0.669l-0.014,3.896
		C199.905,126.833,199.57,127.167,199.157,127.167z"/>
	<path fill="#FFFFFF" d="M199.031,163.382c-0.001,0-0.002,0-0.003,0c-0.414-0.001-0.748-0.338-0.747-0.753l0.021-6.036
		c0.001-0.413,0.337-0.747,0.75-0.747c0.001,0,0.002,0,0.003,0c0.414,0.001,0.748,0.338,0.747,0.753l-0.021,6.036
		C199.78,163.048,199.444,163.382,199.031,163.382z M199.073,151.311c-0.001,0-0.002,0-0.003,0
		c-0.414-0.002-0.749-0.339-0.747-0.753l0.021-6.036c0.002-0.413,0.337-0.747,0.75-0.747h0.003c0.414,0.002,0.749,0.339,0.747,0.753
		l-0.021,6.036C199.821,150.977,199.486,151.311,199.073,151.311z M199.115,139.239c-0.001,0-0.002,0-0.003,0
		c-0.414-0.002-0.749-0.339-0.747-0.753l0.021-6.036c0.002-0.413,0.337-0.747,0.75-0.747h0.003c0.414,0.002,0.749,0.339,0.747,0.753
		l-0.021,6.036C199.863,138.905,199.528,139.239,199.115,139.239z"/>
</g>
<g enable-background="new    ">
	<g>
		<path fill="#FFFFFF" d="M56.019,155.235l-0.004,1.012l-7.359,1.292l-0.018,4.502l6.899-1.222v1.01l-6.904,1.222l-0.016,4.916
			l7.467-1.334l-0.003,1.01l-8.646,1.546l0.046-12.454L56.019,155.235z"/>
		<path fill="#FFFFFF" d="M60.916,154.381l-0.007,12.401l-1.181,0.21l0.012-12.405L60.916,154.381z"/>
		<path fill="#FFFFFF" d="M66.695,153.373l7.215,9.201l0.037-0.005l-0.025-10.449l1.175-0.202l0.035,12.345l-1.317,0.231
			l-7.223-9.193l-0.036,0.008l0.008,10.469l-1.177,0.209l-0.007-12.383L66.695,153.373z"/>
		<path fill="#FFFFFF" d="M86.945,149.874l0.007,0.999l-6.65,1.146l0.016,4.457l5.916-1.028l0.005,1l-5.918,1.028l0.026,5.865
			l-1.177,0.209l-0.047-12.328L86.945,149.874z"/>
		<path fill="#FFFFFF" d="M93.228,148.796l4.938,11.426l-1.265,0.22l-1.537-3.548l-5.62,0.976l-1.462,4.079l-1.246,0.22
			l4.882-13.146L93.228,148.796z M94.957,155.968l-2.427-5.882l-2.431,6.725L94.957,155.968z"/>
		<path fill="#FFFFFF" d="M108.561,148.625c-0.24-0.331-0.533-0.592-0.872-0.786c-0.343-0.192-0.719-0.321-1.126-0.384
			c-0.411-0.061-0.838-0.055-1.286,0.022c-0.816,0.14-1.519,0.414-2.102,0.821c-0.583,0.408-1.06,0.899-1.429,1.474
			c-0.368,0.571-0.64,1.194-0.813,1.864c-0.172,0.671-0.256,1.344-0.25,2.019c0.007,0.664,0.103,1.301,0.287,1.916
			c0.184,0.615,0.466,1.146,0.847,1.588c0.379,0.442,0.863,0.768,1.455,0.973c0.593,0.206,1.296,0.24,2.114,0.097
			c0.575-0.1,1.093-0.292,1.553-0.577c0.458-0.284,0.853-0.631,1.184-1.045c0.327-0.409,0.594-0.869,0.796-1.378
			c0.201-0.509,0.329-1.042,0.379-1.599l1.175-0.201c-0.07,0.765-0.243,1.474-0.511,2.126c-0.27,0.653-0.622,1.225-1.054,1.723
			s-0.944,0.91-1.535,1.242c-0.591,0.33-1.25,0.56-1.976,0.686c-0.969,0.168-1.82,0.141-2.557-0.08
			c-0.736-0.22-1.349-0.58-1.837-1.079c-0.491-0.499-0.861-1.109-1.11-1.833c-0.248-0.725-0.375-1.51-0.382-2.355
			c-0.009-0.846,0.104-1.675,0.341-2.48c0.233-0.809,0.591-1.548,1.069-2.219c0.479-0.673,1.08-1.247,1.808-1.719
			c0.725-0.473,1.572-0.791,2.535-0.954c0.589-0.101,1.159-0.113,1.72-0.035c0.56,0.075,1.069,0.243,1.524,0.503
			c0.459,0.26,0.84,0.61,1.151,1.047c0.31,0.44,0.509,0.972,0.596,1.594l-1.173,0.202
			C108.974,149.346,108.799,148.956,108.561,148.625z"/>
		<path fill="#FFFFFF" d="M114.901,145.107l0.062,5.294l7.312-1.246l-0.074-5.278l1.172-0.198l0.178,12.151l-1.175,0.201
			l-0.085-5.887l-7.312,1.246l0.075,5.902l-1.175,0.203l-0.148-12.19L114.901,145.107z"/>
		<path fill="#FFFFFF" d="M142.233,152.639l-0.199-2.172l-0.033,0.006c-0.199,0.465-0.447,0.876-0.746,1.238
			c-0.299,0.361-0.629,0.672-0.992,0.93c-0.364,0.262-0.756,0.471-1.173,0.632c-0.419,0.164-0.851,0.282-1.3,0.359
			c-0.965,0.163-1.817,0.138-2.555-0.082c-0.735-0.222-1.35-0.577-1.842-1.071c-0.494-0.495-0.868-1.101-1.122-1.815
			c-0.255-0.719-0.388-1.495-0.402-2.333c-0.015-0.836,0.094-1.655,0.321-2.454c0.229-0.798,0.579-1.528,1.051-2.194
			c0.47-0.662,1.068-1.228,1.79-1.694s1.565-0.78,2.527-0.942c0.643-0.105,1.252-0.123,1.825-0.049
			c0.576,0.073,1.093,0.243,1.545,0.508c0.455,0.264,0.839,0.618,1.16,1.062c0.316,0.446,0.541,0.991,0.669,1.638l-1.171,0.196
			c-0.042-0.344-0.165-0.677-0.372-1c-0.207-0.32-0.483-0.6-0.827-0.837c-0.341-0.237-0.751-0.409-1.226-0.518
			c-0.473-0.108-1.001-0.115-1.585-0.017c-0.816,0.138-1.511,0.407-2.092,0.81c-0.578,0.404-1.052,0.889-1.415,1.455
			c-0.363,0.564-0.631,1.181-0.798,1.843c-0.167,0.665-0.245,1.331-0.232,1.998c0.012,0.656,0.112,1.286,0.3,1.896
			c0.19,0.607,0.476,1.131,0.858,1.571c0.382,0.438,0.869,0.761,1.46,0.965c0.594,0.205,1.298,0.238,2.114,0.099
			c0.679-0.115,1.28-0.327,1.811-0.638c0.531-0.31,0.975-0.692,1.335-1.151c0.361-0.456,0.627-0.97,0.801-1.544
			c0.172-0.572,0.244-1.176,0.223-1.818l-4.184,0.705l-0.019-0.982l5.215-0.877l0.123,6.135L142.233,152.639z"/>
		<path fill="#FFFFFF" d="M147.343,139.673l0.152,7.466c0.015,0.697,0.107,1.278,0.277,1.74c0.172,0.463,0.417,0.82,0.732,1.079
			c0.316,0.257,0.7,0.419,1.152,0.483c0.45,0.063,0.958,0.048,1.519-0.047c0.576-0.098,1.083-0.253,1.53-0.469
			c0.441-0.215,0.817-0.504,1.119-0.865c0.303-0.361,0.528-0.798,0.679-1.314c0.148-0.514,0.216-1.118,0.199-1.814l-0.166-7.448
			l1.166-0.193l0.174,7.698c0.016,0.617-0.061,1.217-0.224,1.802c-0.166,0.587-0.435,1.117-0.808,1.598
			c-0.378,0.48-0.862,0.891-1.46,1.233c-0.596,0.344-1.325,0.588-2.188,0.734c-0.848,0.144-1.578,0.145-2.185,0.005
			c-0.61-0.139-1.109-0.384-1.503-0.734c-0.395-0.352-0.686-0.79-0.877-1.319c-0.188-0.524-0.291-1.098-0.304-1.719l-0.156-7.72
			L147.343,139.673z"/>
		<path fill="#FFFFFF" d="M167.987,136.271l0.024,0.972l-4.272,0.704l0.276,11.014l-1.168,0.196l-0.275-11.021l-4.256,0.703
			l-0.022-0.977L167.987,136.271z"/>
	</g>
</g>
<g enable-background="new    ">
	<g>
		<path fill="#FFFFFF" d="M61.187,188.159l-1.714,0.309l-0.428-1.726c-0.704,0.941-1.412,1.635-2.123,2.078
			c-0.712,0.445-1.532,0.75-2.461,0.918c-1.145,0.207-2.171,0.182-3.085-0.076c-0.911-0.258-1.687-0.695-2.32-1.312
			c-0.636-0.617-1.126-1.384-1.47-2.298c-0.345-0.915-0.521-1.924-0.528-3.029c-0.01-1.091,0.149-2.153,0.478-3.191
			c0.328-1.035,0.803-1.975,1.424-2.818c0.622-0.845,1.385-1.562,2.285-2.152c0.902-0.59,1.923-0.986,3.062-1.188
			c0.826-0.146,1.615-0.175,2.363-0.084c0.75,0.09,1.42,0.302,2.008,0.635c0.589,0.334,1.077,0.795,1.469,1.385
			c0.393,0.591,0.643,1.305,0.752,2.146l-2.609,0.464c-0.076-0.489-0.234-0.902-0.473-1.239c-0.238-0.338-0.539-0.604-0.897-0.798
			c-0.357-0.194-0.759-0.317-1.2-0.368c-0.444-0.051-0.909-0.032-1.393,0.053c-0.812,0.145-1.513,0.435-2.102,0.869
			s-1.067,0.961-1.432,1.578c-0.367,0.619-0.637,1.296-0.81,2.03s-0.255,1.468-0.248,2.199c0.006,0.731,0.101,1.433,0.286,2.102
			c0.185,0.671,0.465,1.247,0.843,1.732c0.375,0.484,0.862,0.838,1.459,1.061c0.595,0.223,1.301,0.259,2.115,0.112
			c0.687-0.109,1.292-0.308,1.819-0.597c0.525-0.287,0.97-0.647,1.33-1.076c0.359-0.431,0.63-0.928,0.81-1.489
			c0.18-0.562,0.274-1.166,0.281-1.812l-4.068,0.729l-0.021-2.039l6.506-1.161L61.187,188.159z"/>
		<path fill="#FFFFFF" d="M64.987,172.155l10.972-1.923l0.031,2.309l-8.306,1.46l0.049,4.002l7.694-1.361l0.031,2.176l-7.698,1.366
			l0.06,4.469l8.474-1.515l0.035,2.302l-11.157,2.002L64.987,172.155z"/>
		<path fill="#FFFFFF" d="M79.925,169.541l7.398-1.287c1.363-0.237,2.463-0.114,3.299,0.366c0.834,0.479,1.261,1.352,1.285,2.611
			c0.013,0.765-0.164,1.453-0.532,2.063c-0.367,0.612-0.896,1.127-1.588,1.547v0.042c0.944,0.034,1.662,0.353,2.16,0.953
			c0.496,0.601,0.754,1.418,0.772,2.451c0.011,0.594-0.085,1.167-0.29,1.722c-0.203,0.554-0.528,1.058-0.979,1.513
			c-0.448,0.457-1.027,0.856-1.735,1.201c-0.71,0.347-1.556,0.607-2.54,0.782l-7.016,1.25L79.925,169.541z M82.69,175.447
			l4.354-0.766c0.641-0.111,1.171-0.386,1.594-0.822c0.419-0.436,0.622-0.993,0.612-1.674c-0.015-0.766-0.214-1.27-0.604-1.515
			c-0.39-0.246-0.946-0.306-1.672-0.179l-4.35,0.76L82.69,175.447z M82.799,182.108l4.724-0.838
			c0.812-0.144,1.438-0.464,1.881-0.961c0.44-0.496,0.653-1.127,0.64-1.892c-0.012-0.749-0.246-1.287-0.703-1.612
			c-0.455-0.324-1.088-0.417-1.899-0.273l-4.72,0.831L82.799,182.108z"/>
		<path fill="#FFFFFF" d="M100.063,166.049l2.831-0.487l6.185,14.073l-2.862,0.503l-1.517-3.742l-6.083,1.067l-1.351,4.254
			l-2.756,0.487L100.063,166.049z M99.303,175.324l4.65-0.813l-2.412-6.102l-0.064,0.012L99.303,175.324z"/>
		<path fill="#FFFFFF" d="M121.623,167.154c-0.125-0.416-0.292-0.788-0.499-1.12s-0.47-0.603-0.788-0.816
			c-0.318-0.212-0.689-0.356-1.111-0.433c-0.421-0.077-0.908-0.067-1.462,0.027c-0.806,0.138-1.503,0.42-2.084,0.845
			c-0.579,0.425-1.049,0.938-1.405,1.542c-0.357,0.607-0.617,1.269-0.777,1.988c-0.162,0.719-0.235,1.438-0.219,2.155
			c0.017,0.717,0.121,1.404,0.315,2.062c0.193,0.658,0.481,1.226,0.864,1.701c0.384,0.477,0.873,0.824,1.471,1.045
			c0.597,0.22,1.304,0.258,2.112,0.117c0.597-0.104,1.121-0.297,1.571-0.579c0.449-0.283,0.833-0.631,1.15-1.045
			c0.316-0.414,0.563-0.876,0.735-1.385c0.172-0.508,0.28-1.041,0.322-1.598l2.6-0.448c-0.034,0.906-0.207,1.759-0.521,2.559
			c-0.316,0.802-0.749,1.519-1.304,2.157c-0.556,0.64-1.211,1.172-1.973,1.6c-0.76,0.429-1.604,0.724-2.527,0.886
			c-1.137,0.198-2.163,0.17-3.076-0.086c-0.914-0.255-1.691-0.688-2.335-1.294c-0.644-0.607-1.143-1.359-1.499-2.258
			c-0.354-0.898-0.546-1.889-0.569-2.973c-0.024-1.068,0.119-2.11,0.432-3.127c0.312-1.013,0.772-1.934,1.384-2.759
			c0.605-0.825,1.356-1.525,2.248-2.102c0.89-0.575,1.902-0.96,3.037-1.154c0.85-0.145,1.653-0.166,2.409-0.062
			s1.427,0.328,2.012,0.673c0.584,0.345,1.062,0.802,1.433,1.372c0.37,0.569,0.607,1.255,0.713,2.053L121.623,167.154z"/>
		<path fill="#FFFFFF" d="M127.668,161.327l2.656-0.45l0.181,6.822l6.572-7.965l3.267-0.552l-5.884,6.998l6.752,7.857l-3.323,0.575
			l-5.188-6.281l-2.11,2.49l0.139,5.031l-2.664,0.463L127.668,161.327z"/>
		<path fill="#FFFFFF" d="M143.699,158.618l10.901-1.828l0.072,2.252l-8.253,1.388l0.118,3.905l7.645-1.295l0.069,2.123l-7.647,1.3
			l0.136,4.359l8.422-1.441l0.076,2.246l-11.089,1.905L143.699,158.618z"/>
		<path fill="#FFFFFF" d="M158.438,156.149l2.796-0.466l7.298,9.758l0.042-0.008l-0.392-10.903l2.52-0.418l0.543,14.785
			l-2.804,0.477l-7.286-9.725l-0.063,0.011l0.378,10.901l-2.531,0.432L158.438,156.149z"/>
	</g>
</g>
</svg>
