<?xml version="1.0" encoding="utf-8"?>
<!-- Generator: Adobe Illustrator 15.1.0, SVG Export Plug-In . SVG Version: 6.00 Build 0)  -->
<!DOCTYPE svg PUBLIC "-//W3C//DTD SVG 1.1//EN" "http://www.w3.org/Graphics/SVG/1.1/DTD/svg11.dtd">
<svg version="1.1" id="Ebene_1" xmlns="http://www.w3.org/2000/svg" xmlns:xlink="http://www.w3.org/1999/xlink" x="0px" y="0px"
	 width="77px" height="77px" viewBox="0 0 77 77" enable-background="new 0 0 77 77" xml:space="preserve">
<g>
	<defs>
		<rect id="SVGID_1_" x="23.5" y="21.5" width="30" height="22"/>
	</defs>
	<clipPath id="SVGID_2_">
		<use xlink:href="#SVGID_1_"  overflow="visible"/>
	</clipPath>
	<path clip-path="url(#SVGID_2_)" fill="#003B62" d="M44.451,38.245c-5.693-2.22-6.733-3.16-6.917-3.454v-0.679
		c0.643-0.727,1.148-1.667,1.473-2.741c0.496-0.434,0.787-1.072,0.787-1.75c0-0.458-0.133-0.895-0.385-1.275v-2.148
		c0-2.986-1.823-4.699-5.004-4.699c-3.136,0-5.008,1.757-5.008,4.699v2.149c-0.251,0.38-0.383,0.816-0.383,1.274
		c0,0.677,0.291,1.315,0.787,1.749c0.324,1.075,0.829,2.015,1.473,2.742v0.678c-0.186,0.297-1.23,1.237-6.916,3.455
		c-0.514,0.201-0.859,0.712-0.859,1.271v2.624c0,0.75,0.6,1.36,1.338,1.36h19.135c0.736,0,1.337-0.61,1.337-1.36v-2.624
		C45.31,38.956,44.965,38.445,44.451,38.245 M44.094,42.14c0,0.073-0.055,0.134-0.121,0.134H24.838
		c-0.067,0-0.122-0.061-0.122-0.134v-2.624c0-0.057,0.033-0.107,0.081-0.125c6.337-2.474,7.429-3.522,7.666-4.288
		c0.018-0.06,0.027-0.121,0.027-0.183v-1.05c0-0.16-0.062-0.313-0.173-0.429c-0.625-0.643-1.109-1.541-1.401-2.596
		c-0.037-0.136-0.121-0.254-0.236-0.336c-0.28-0.2-0.449-0.532-0.449-0.888c0-0.315,0.134-0.548,0.247-0.688
		c0.088-0.109,0.136-0.246,0.136-0.386v-2.349c0-2.271,1.311-3.472,3.792-3.472c2.515,0,3.79,1.167,3.79,3.472v2.348
		c0,0.141,0.047,0.278,0.136,0.387c0.113,0.14,0.247,0.373,0.247,0.688c0,0.356-0.169,0.689-0.45,0.888
		c-0.115,0.082-0.198,0.201-0.236,0.337c-0.292,1.054-0.776,1.952-1.401,2.595c-0.11,0.115-0.173,0.269-0.173,0.429v1.05
		c0,0.062,0.01,0.124,0.028,0.184c0.237,0.765,1.33,1.815,7.667,4.287c0.049,0.018,0.08,0.068,0.08,0.125V42.14z"/>
	<path clip-path="url(#SVGID_2_)" fill="#003B62" d="M52.675,38.533c-1.448-0.564-2.966-0.857-4.184-1.095
		c-0.838-0.162-1.97-0.382-2.215-0.558v-0.642c2.818-0.131,4.02-1.091,4.073-1.134c0.155-0.128,0.238-0.326,0.221-0.527
		c-0.016-0.201-0.131-0.383-0.305-0.481c-0.6-0.344-1.201-3.065-1.384-5.343c0-1.665-0.677-3.256-1.858-4.37
		c-0.474-0.543-1.105-0.936-1.839-1.152c-1.25-0.469-2.62-0.443-3.794,0.031c-0.503,0.166-0.947,0.408-1.324,0.717
		c-0.26,0.213-0.299,0.599-0.087,0.863c0.212,0.262,0.595,0.303,0.855,0.087c0.261-0.214,0.575-0.383,0.97-0.515
		c0.961-0.384,1.941-0.412,2.996-0.02c0.559,0.166,1.004,0.441,1.325,0.817c0.016,0.018,0.032,0.034,0.048,0.05
		c0.949,0.883,1.492,2.156,1.494,3.542c0.084,1.06,0.402,4.15,1.332,5.657c-0.597,0.251-1.67,0.563-3.334,0.567
		c-0.334,0.002-0.605,0.275-0.605,0.613v1.398c0,0.061,0.01,0.123,0.027,0.183c0.266,0.858,1.422,1.081,3.174,1.421
		c1.171,0.229,2.627,0.51,3.975,1.035c0.028,0.011,0.048,0.042,0.048,0.076v2.438c0,0.044-0.032,0.081-0.069,0.081h-5.17
		c-0.336,0-0.607,0.273-0.607,0.613c0,0.339,0.271,0.613,0.607,0.613h5.17c0.708,0,1.285-0.586,1.285-1.308v-2.438
		C53.5,39.217,53.168,38.727,52.675,38.533"/>
</g>
</svg>
