<?xml version="1.0" encoding="utf-8"?>
<!-- Generator: Adobe Illustrator 15.1.0, SVG Export Plug-In . SVG Version: 6.00 Build 0)  -->
<!DOCTYPE svg PUBLIC "-//W3C//DTD SVG 1.1//EN" "http://www.w3.org/Graphics/SVG/1.1/DTD/svg11.dtd">
<svg version="1.1" id="Ebene_1" xmlns="http://www.w3.org/2000/svg" xmlns:xlink="http://www.w3.org/1999/xlink" x="0px" y="0px"
	 width="77px" height="77px" viewBox="0 0 77 77" enable-background="new 0 0 77 77" xml:space="preserve">
<g>
	<defs>
		<rect id="SVGID_1_" x="23.821" y="23" width="29.357" height="21"/>
	</defs>
	<clipPath id="SVGID_2_">
		<use xlink:href="#SVGID_1_"  overflow="visible"/>
	</clipPath>
	<path clip-path="url(#SVGID_2_)" fill="#003B62" d="M30.355,43.399c-1.667,0-3.005-0.477-4.09-1.456
		c-0.95-0.857-1.531-1.914-1.767-3.219l1.383-0.183c0.328,1.276,0.845,2.24,1.539,2.868c0.805,0.729,1.796,1.101,2.947,1.101
		c1.347,0,2.503-0.474,3.433-1.41c0.931-0.935,1.402-2.105,1.402-3.479c0-1.316-0.441-2.424-1.31-3.292
		c-0.872-0.866-1.986-1.304-3.312-1.304c-0.322,0-0.678,0.036-1.079,0.108l0.104-0.816c1.143-0.021,2.188-0.336,3.11-0.938
		c1.036-0.673,1.562-1.715,1.562-3.095c0-1.091-0.377-2.01-1.122-2.73c-0.737-0.717-1.694-1.081-2.842-1.081
		c-1.136,0-2.1,0.367-2.866,1.09c-0.635,0.599-1.08,1.443-1.326,2.517l-1.327-0.236c0.326-1.263,0.92-2.268,1.771-2.993
		c0.976-0.831,2.218-1.252,3.691-1.252c1.023,0,1.973,0.221,2.826,0.656c0.848,0.432,1.478,1.003,1.925,1.746
		c0.446,0.743,0.663,1.509,0.663,2.339c0,0.778-0.202,1.463-0.618,2.095c-0.416,0.64-1.026,1.138-1.865,1.524l-1.598,0.734
		l1.714,0.395c1.087,0.251,1.901,0.749,2.489,1.524c0.59,0.775,0.89,1.768,0.89,2.955c0,1.637-0.582,2.986-1.778,4.126
		C33.7,42.842,32.211,43.399,30.355,43.399"/>
	<path clip-path="url(#SVGID_2_)" fill="#003B62" d="M46.477,43.387c-1.806,0-3.18-0.623-4.199-1.904
		c-1.262-1.593-1.902-4.278-1.902-7.982c0-2.357,0.242-4.266,0.72-5.675c0.459-1.366,1.146-2.427,2.037-3.154
		c0.886-0.721,1.98-1.071,3.345-1.071c0.997,0,1.878,0.2,2.618,0.595c0.738,0.394,1.358,0.971,1.841,1.717
		c0.505,0.781,0.908,1.749,1.198,2.879c0.295,1.153,0.445,2.737,0.445,4.709c0,2.335-0.24,4.236-0.714,5.647
		c-0.457,1.368-1.142,2.431-2.033,3.161C48.96,43.024,47.832,43.387,46.477,43.387 M46.45,24.489c-1.36,0-2.46,0.581-3.269,1.725
		c-0.951,1.371-1.411,3.753-1.411,7.286c0,3.532,0.422,5.849,1.292,7.082c0.906,1.28,2.055,1.929,3.414,1.929
		c1.362,0,2.511-0.651,3.413-1.938c0.87-1.232,1.293-3.547,1.293-7.073c0-3.546-0.424-5.865-1.294-7.092
		C48.984,25.135,47.828,24.489,46.45,24.489"/>
</g>
</svg>
