<?xml version="1.0" encoding="utf-8"?>
<!-- Generator: Adobe Illustrator 15.1.0, SVG Export Plug-In . SVG Version: 6.00 Build 0)  -->
<!DOCTYPE svg PUBLIC "-//W3C//DTD SVG 1.1//EN" "http://www.w3.org/Graphics/SVG/1.1/DTD/svg11.dtd">
<svg version="1.1" id="Ebene_1" xmlns="http://www.w3.org/2000/svg" xmlns:xlink="http://www.w3.org/1999/xlink" x="0px" y="0px"
	 width="77px" height="77px" viewBox="0 0 77 77" enable-background="new 0 0 77 77" xml:space="preserve">
<g>
	<g>
		<defs>
			<rect id="SVGID_1_" x="25.524" y="22.603" width="25.951" height="21.379"/>
		</defs>
		<clipPath id="SVGID_2_">
			<use xlink:href="#SVGID_1_"  overflow="visible"/>
		</clipPath>
		<path clip-path="url(#SVGID_2_)" fill="#003B62" d="M31.266,43.025V25.841l-1.014,0.968c-0.582,0.555-1.364,1.123-2.325,1.688
			c-0.642,0.378-1.246,0.695-1.803,0.948v-1.211c1.344-0.666,2.543-1.467,3.571-2.386c0.999-0.892,1.753-1.781,2.245-2.646h0.697
			v19.823H31.266z"/>
	</g>
	<g>
		<defs>
			<rect id="SVGID_3_" x="25.524" y="22.603" width="25.951" height="21.379"/>
		</defs>
		<clipPath id="SVGID_4_">
			<use xlink:href="#SVGID_3_"  overflow="visible"/>
		</clipPath>
		<path clip-path="url(#SVGID_4_)" fill="#003B62" d="M44.648,43.382c-1.844,0-3.246-0.635-4.287-1.944
			c-1.286-1.623-1.94-4.361-1.94-8.139c0-2.398,0.247-4.344,0.733-5.785c0.47-1.393,1.17-2.476,2.08-3.218
			c0.891-0.726,2.039-1.094,3.414-1.094c1.018,0,1.918,0.204,2.674,0.608c0.753,0.402,1.385,0.992,1.878,1.754
			c0.515,0.794,0.926,1.782,1.223,2.936c0.302,1.169,0.453,2.784,0.453,4.799c0,2.379-0.245,4.316-0.728,5.76
			c-0.465,1.394-1.164,2.479-2.074,3.226C47.172,43.021,46.052,43.382,44.648,43.382 M44.62,24.13c-1.382,0-2.499,0.59-3.319,1.755
			c-0.968,1.394-1.438,3.818-1.438,7.414c0,3.599,0.432,5.956,1.316,7.21c0.918,1.3,2.086,1.96,3.469,1.96
			c1.381,0,2.549-0.662,3.468-1.968c0.886-1.258,1.315-3.614,1.315-7.202c0-3.607-0.431-5.968-1.316-7.216
			C47.195,24.787,46.02,24.13,44.62,24.13"/>
	</g>
</g>
</svg>
