<?xml version="1.0" encoding="utf-8"?>
<!-- Generator: Adobe Illustrator 15.1.0, SVG Export Plug-In . SVG Version: 6.00 Build 0)  -->
<!DOCTYPE svg PUBLIC "-//W3C//DTD SVG 1.1//EN" "http://www.w3.org/Graphics/SVG/1.1/DTD/svg11.dtd">
<svg version="1.1" id="Ebene_1" xmlns="http://www.w3.org/2000/svg" xmlns:xlink="http://www.w3.org/1999/xlink" x="0px" y="0px"
	 width="77px" height="77px" viewBox="0 0 77 77" enable-background="new 0 0 77 77" xml:space="preserve">
<g>
	<defs>
		<rect id="SVGID_1_" x="23.636" y="23" width="29.729" height="21"/>
	</defs>
	<clipPath id="SVGID_2_">
		<use xlink:href="#SVGID_1_"  overflow="visible"/>
	</clipPath>
	<path clip-path="url(#SVGID_2_)" fill="#003B62" d="M30.776,43.399c-1.941,0-3.476-0.689-4.693-2.11
		c-1.225-1.429-1.847-3.871-1.847-7.264c0-3.817,0.695-6.606,2.066-8.29c1.172-1.437,2.712-2.135,4.71-2.135
		c1.483,0,2.654,0.396,3.581,1.212c0.793,0.694,1.305,1.601,1.555,2.76l-1.355,0.107c-0.239-0.847-0.557-1.481-0.967-1.928
		c-0.802-0.848-1.798-1.274-2.966-1.274c-0.936,0-1.768,0.266-2.475,0.79c-0.881,0.642-1.582,1.583-2.078,2.794
		c-0.486,1.181-0.742,2.856-0.761,4.978l-0.018,2.042l1.12-1.707c0.547-0.834,1.22-1.459,2.002-1.859
		c0.79-0.402,1.628-0.606,2.488-0.606c1.527,0,2.792,0.547,3.867,1.673c1.083,1.134,1.61,2.57,1.61,4.39
		c0,1.187-0.259,2.306-0.772,3.328c-0.508,1.013-1.185,1.767-2.069,2.303C32.902,43.132,31.893,43.399,30.776,43.399 M30.635,31.938
		c-1.304,0-2.426,0.475-3.336,1.41c-0.902,0.928-1.36,2.153-1.36,3.637c0,0.954,0.205,1.879,0.609,2.75
		c0.417,0.898,1.015,1.596,1.777,2.074c0.756,0.473,1.567,0.713,2.409,0.713c1.238,0,2.313-0.501,3.196-1.489
		c0.865-0.972,1.303-2.286,1.303-3.906c0-1.57-0.437-2.839-1.297-3.769C33.064,32.417,31.953,31.938,30.635,31.938"/>
	<path clip-path="url(#SVGID_2_)" fill="#003B62" d="M46.662,43.399c-1.806,0-3.18-0.622-4.199-1.903
		c-1.262-1.593-1.902-4.278-1.902-7.982c0-2.357,0.242-4.266,0.72-5.675c0.459-1.366,1.146-2.427,2.037-3.154
		c0.886-0.721,1.98-1.071,3.345-1.071c0.997,0,1.878,0.2,2.618,0.595c0.738,0.394,1.358,0.971,1.841,1.717
		c0.505,0.781,0.908,1.749,1.198,2.879c0.295,1.153,0.445,2.737,0.445,4.709c0,2.336-0.24,4.236-0.714,5.647
		c-0.457,1.368-1.142,2.431-2.033,3.161C49.146,43.038,48.018,43.399,46.662,43.399 M46.636,24.503c-1.36,0-2.46,0.581-3.269,1.725
		c-0.951,1.371-1.411,3.753-1.411,7.286c0,3.532,0.422,5.85,1.292,7.082c0.906,1.28,2.055,1.928,3.414,1.928
		c1.362,0,2.511-0.65,3.413-1.937c0.87-1.232,1.293-3.547,1.293-7.073c0-3.546-0.424-5.865-1.294-7.092
		C49.17,25.149,48.014,24.503,46.636,24.503"/>
</g>
</svg>
